<svg xmlns="http://www.w3.org/2000/svg" width="740" height="550" viewBox="0 0 740 550" font-family="monospace">
<defs><marker id="arrow" viewBox="0 0 10 10" refX="9" refY="5" markerWidth="6" markerHeight="6" orient="auto-start-reverse"><path d="M 0 0 L 10 5 L 0 10 z" fill="#C0C0C0" /></marker></defs>
<rect width="100%" height="100%" fill="#1e1e1e" />
<path d="M 290.0 140.0 C 220.0 140.0, 220.0 140.0, 290.0 140.0" fill="none" stroke="#C0C0C0" stroke-width="2" marker-end="url(#arrow)" />
<line x1="450.0" y1="165.0" x2="290.0" y2="205.0" stroke="#C0C0C0" stroke-width="2" marker-end="url(#arrow)" />
<path d="M 290.0 230.0 C 220.0 230.0, 220.0 140.0, 450.0 140.0" fill="none" stroke="#C0C0C0" stroke-width="2" marker-end="url(#arrow)" />
<line x1="610.0" y1="165.0" x2="450.0" y2="205.0" stroke="#C0C0C0" stroke-width="2" marker-end="url(#arrow)" />
<path d="M 370.0 320.0 C 300.0 320.0, 300.0 140.0, 610.0 140.0" fill="none" stroke="#C0C0C0" stroke-width="2" marker-end="url(#arrow)" />
<line x1="450.0" y1="255.0" x2="370.0" y2="295.0" stroke="#C0C0C0" stroke-width="2" marker-end="url(#arrow)" />
<path d="M 370.0 500.0 C 300.0 500.0, 300.0 410.0, 370.0 410.0" fill="none" stroke="#C0C0C0" stroke-width="2" marker-end="url(#arrow)" />
<line x1="370.0" y1="75.0" x2="130.0" y2="115.0" stroke="#C0C0C0" stroke-width="2" marker-end="url(#arrow)" />
<line x1="370.0" y1="75.0" x2="290.0" y2="115.0" stroke="#C0C0C0" stroke-width="2" marker-end="url(#arrow)" />
<line x1="370.0" y1="75.0" x2="450.0" y2="115.0" stroke="#C0C0C0" stroke-width="2" marker-end="url(#arrow)" />
<line x1="370.0" y1="75.0" x2="610.0" y2="115.0" stroke="#C0C0C0" stroke-width="2" marker-end="url(#arrow)" />
<g id="node-main"><rect x="295.0" y="25.0" width="150" height="50" rx="8" fill="#2d2d2d" stroke="#DCDCAA" stroke-width="2" /><text text-anchor="middle" font-size="11" fill="#D4D4D4"><tspan x="370.0" y="50.0">main</tspan></text></g>
<g id="node-leaf"><rect x="55.0" y="115.0" width="150" height="50" rx="8" fill="#2d2d2d" stroke="#DCDCAA" stroke-width="2" /><text text-anchor="middle" font-size="11" fill="#D4D4D4"><tspan x="130.0" y="140.0">leaf</tspan></text></g>
<g id="node-self_recursive"><rect x="215.0" y="115.0" width="150" height="50" rx="8" fill="#2d2d2d" stroke="#DCDCAA" stroke-width="2" /><text text-anchor="middle" font-size="11" fill="#D4D4D4"><tspan x="290.0" y="140.0">self_recursive</tspan></text></g>
<g id="node-ping"><rect x="375.0" y="115.0" width="150" height="50" rx="8" fill="#2d2d2d" stroke="#DCDCAA" stroke-width="2" /><text text-anchor="middle" font-size="11" fill="#D4D4D4"><tspan x="450.0" y="140.0">ping</tspan></text></g>
<g id="node-a_fn"><rect x="535.0" y="115.0" width="150" height="50" rx="8" fill="#2d2d2d" stroke="#DCDCAA" stroke-width="2" /><text text-anchor="middle" font-size="11" fill="#D4D4D4"><tspan x="610.0" y="140.0">a_fn</tspan></text></g>
<g id="node-pong"><rect x="215.0" y="205.0" width="150" height="50" rx="8" fill="#2d2d2d" stroke="#DCDCAA" stroke-width="2" /><text text-anchor="middle" font-size="11" fill="#D4D4D4"><tspan x="290.0" y="230.0">pong</tspan></text></g>
<g id="node-c_fn"><rect x="375.0" y="205.0" width="150" height="50" rx="8" fill="#2d2d2d" stroke="#DCDCAA" stroke-width="2" /><text text-anchor="middle" font-size="11" fill="#D4D4D4"><tspan x="450.0" y="230.0">c_fn</tspan></text></g>
<g id="node-b_fn"><rect x="295.0" y="295.0" width="150" height="50" rx="8" fill="#2d2d2d" stroke="#DCDCAA" stroke-width="2" /><text text-anchor="middle" font-size="11" fill="#D4D4D4"><tspan x="370.0" y="320.0">b_fn</tspan></text></g>
<g id="node-only_from_orphan"><rect x="295.0" y="385.0" width="150" height="50" rx="8" fill="#2d2d2d" stroke="#DCDCAA" stroke-width="2" /><text text-anchor="middle" font-size="11" fill="#D4D4D4"><tspan x="370.0" y="410.0">only_from_orphan</tspan></text></g>
<g id="node-orphan"><rect x="295.0" y="475.0" width="150" height="50" rx="8" fill="#2d2d2d" stroke="#DCDCAA" stroke-width="2" /><text text-anchor="middle" font-size="11" fill="#D4D4D4"><tspan x="370.0" y="500.0">orphan</tspan></text></g>
</svg>